<?xml version="1.0" encoding="utf-8"?>
<!-- Generator: Adobe Illustrator 22.1.0, SVG Export Plug-In . SVG Version: 6.00 Build 0)  -->
<svg version="1.1" id="Layer_1" xmlns="http://www.w3.org/2000/svg" xmlns:xlink="http://www.w3.org/1999/xlink" x="0px" y="0px"
	 viewBox="0 0 1920 1080" style="enable-background:new 0 0 1920 1080;" xml:space="preserve">
<style type="text/css">
	.st0{fill:none;stroke:#000000;stroke-width:20;stroke-linecap:round;stroke-linejoin:round;stroke-miterlimit:10;}
	.st1{fill:none;stroke:#000000;stroke-width:10;stroke-miterlimit:10;}
	.st2{fill:none;stroke:#000000;stroke-width:20;stroke-miterlimit:10;}
	.st3{fill:none;stroke:#000000;stroke-width:20;stroke-miterlimit:10;stroke-dasharray:24.9839,24.9839;}
	.st4{fill:none;stroke:#000000;stroke-width:20;stroke-miterlimit:10;stroke-dasharray:25;}
</style>
<g>
	<polygon class="st0" points="818,476.5 1170,428.5 989,678.5 912,592.5 873,613.5 873,543.5 	"/>
	<line class="st1" x1="872.5" y1="543" x2="1169.5" y2="429"/>
	<line class="st1" x1="908.5" y1="589" x2="1167" y2="434.5"/>
</g>
<g>
	<g>
		<path class="st2" d="M123.4,291.4c-2.5,3.4-4.9,6.8-7.2,10.2"/>
		<path class="st3" d="M102.5,322.5C6.4,478.7,31.6,645,117.3,705.2c64.8,45.6,177,39.6,246.4-17.3c37.2-30.5,91.6-99.8,64-148.8
			C405.8,500.3,336.9,483,295,512c-42.5,29.5-41.1,95.8-24,135.4c41.4,95.5,205.4,106,284.2,100c111.1-8.5,194.7-60.5,243.2-98.9"/>
		<path class="st2" d="M808.2,640.7c3.4-2.8,6.6-5.5,9.5-8.1"/>
	</g>
</g>
<path class="st4" d="M1238,410c213.2-127.8,451.2-134.2,598-17c32.8,26.2,86.2,78.7,121,175"/>
<line class="st1" x1="1200" y1="233" x2="1275" y2="233"/>
<line class="st1" x1="1670" y1="568" x2="1725" y2="568"/>
<line class="st1" x1="824" y1="913" x2="879" y2="913"/>
<line class="st1" x1="1671" y1="812" x2="1726" y2="812"/>
<line class="st1" x1="1693" y1="550" x2="1703" y2="550"/>
<line class="st1" x1="1693" y1="586" x2="1703" y2="586"/>
<line class="st1" x1="1380" y1="722" x2="1435" y2="722"/>
<line class="st1" x1="1403" y1="704" x2="1413" y2="704"/>
<line class="st1" x1="1403" y1="740" x2="1413" y2="740"/>
<line class="st1" x1="546" y1="262" x2="601" y2="262"/>
<line class="st1" x1="569" y1="244" x2="579" y2="244"/>
<line class="st1" x1="569" y1="280" x2="579" y2="280"/>
<line class="st1" x1="237" y1="849" x2="292" y2="849"/>
<line class="st1" x1="260" y1="831" x2="270" y2="831"/>
<line class="st1" x1="260" y1="867" x2="270" y2="867"/>
<line class="st1" x1="1238" y1="196" x2="1238" y2="271"/>
<line class="st1" x1="1365" y1="511" x2="1440" y2="511"/>
<line class="st1" x1="1403" y1="474" x2="1403" y2="549"/>
<line class="st1" x1="563" y1="610" x2="638" y2="610"/>
<line class="st1" x1="601" y1="573" x2="601" y2="648"/>
<line class="st1" x1="1581.3" y1="96.6" x2="1634.4" y2="149.7"/>
<line class="st1" x1="1634.4" y1="97.3" x2="1581.3" y2="150.4"/>
<line class="st1" x1="1180.3" y1="767.6" x2="1233.4" y2="820.7"/>
<line class="st1" x1="1233.4" y1="768.3" x2="1180.3" y2="821.4"/>
<line class="st1" x1="780.3" y1="148.6" x2="833.4" y2="201.7"/>
<line class="st1" x1="833.4" y1="149.3" x2="780.3" y2="202.4"/>
<line class="st1" x1="306.3" y1="110.6" x2="359.4" y2="163.7"/>
<line class="st1" x1="359.4" y1="111.3" x2="306.3" y2="164.4"/>
</svg>
